<?xml version="1.0" encoding="iso-8859-1"?>
<!-- Generator: Adobe Illustrator 19.0.0, SVG Export Plug-In . SVG Version: 6.00 Build 0)  -->
<svg version="1.1" id="Layer_1" xmlns="http://www.w3.org/2000/svg" xmlns:xlink="http://www.w3.org/1999/xlink" x="0px" y="0px"
	 viewBox="0 0 512 512" style="enable-background:new 0 0 512 512;" xml:space="preserve">
<g>
	<g>
		<path d="M467.701,62.386c-2.194-0.798-54.397-19.534-107.604-19.534c-46.356,0-91.919,14.218-104.329,18.408
			c-12.411-4.19-57.957-18.408-104.314-18.408c-53.207,0-105.218,18.736-107.412,19.534c-3.747,1.362-6.117,4.924-6.117,8.911
			v322.372c0,3.093,1.375,5.991,3.91,7.766c1.616,1.132,3.453,1.715,5.374,1.715c1.09,0,2.154-0.188,3.207-0.572
			c0.505-0.183,51.138-18.391,101.038-18.391c49.785,0,100.544,18.208,101.051,18.394c0.079,0.028,0.156,0.044,0.235,0.072
			c0.142,0.046,0.282,0.086,0.426,0.125c0.292,0.083,0.583,0.151,0.878,0.204c0.146,0.028,0.289,0.053,0.436,0.074
			c0.334,0.044,0.669,0.067,1.005,0.076c0.084,0.002,0.167,0.018,0.25,0.018c0.018,0,0.037-0.005,0.054-0.005
			c0.473-0.002,0.943-0.049,1.411-0.123c0.138-0.021,0.273-0.051,0.412-0.079c0.382-0.079,0.76-0.178,1.132-0.303
			c0.076-0.026,0.155-0.035,0.23-0.063c0.506-0.183,51.155-18.391,101.056-18.391c49.785,0,100.552,18.208,101.059,18.394
			c2.905,1.056,6.278,0.623,8.81-1.148c2.532-1.775,4.174-4.671,4.174-7.764V71.297C474.074,67.31,471.447,63.748,467.701,62.386z
			 M246.518,380.61c-18.963-5.743-56.644-15.387-94.815-15.387c-38.171,0-75.852,9.644-94.815,15.387V78.119
			c14.222-4.819,55.184-16.303,94.815-16.303c39.545,0,80.593,11.49,94.815,16.308V380.61z M455.111,380.61
			c-18.963-5.743-56.644-15.387-94.815-15.387c-38.171,0-75.852,9.644-94.815,15.387V78.119
			c14.222-4.819,55.184-16.303,94.815-16.303c39.545,0,80.593,11.49,94.815,16.308V380.61z"/>
	</g>
</g>
<g>
	<g>
		<path d="M502.518,90.26c-5.236,0-9.481,4.246-9.481,9.482v331.48H293.661c-5.236,0-9.216,4.618-9.216,9.854v9.109h-56.889v-8.977
			c0-5.236-4.51-9.986-9.746-9.986H18.963V99.741c0-5.236-4.245-9.482-9.481-9.482S0,94.505,0,99.741v341.467
			c0,5.236,3.98,8.977,9.216,8.977h199.376v9.854c0,5.236,3.98,9.109,9.216,9.109h75.852c5.236,0,9.747-3.873,9.747-9.109v-9.854
			h199.072c5.236,0,9.521-3.873,9.521-9.109V99.741C512,94.505,507.755,90.26,502.518,90.26z"/>
	</g>
</g>
<g>
</g>
<g>
</g>
<g>
</g>
<g>
</g>
<g>
</g>
<g>
</g>
<g>
</g>
<g>
</g>
<g>
</g>
<g>
</g>
<g>
</g>
<g>
</g>
<g>
</g>
<g>
</g>
<g>
</g>
</svg>
