<?xml version="1.0" encoding="iso-8859-1"?>
<!-- Generator: Adobe Illustrator 19.0.0, SVG Export Plug-In . SVG Version: 6.00 Build 0)  -->
<svg version="1.1" id="Layer_1" xmlns="http://www.w3.org/2000/svg" xmlns:xlink="http://www.w3.org/1999/xlink" x="0px" y="0px"
	 viewBox="0 0 512 512" style="enable-background:new 0 0 512 512;" xml:space="preserve">
<g>
	<g>
		<path d="M502.692,246.301H32.167L239.653,38.816c3.636-3.635,3.635-9.526,0-13.161c-3.635-3.636-9.525-3.636-13.161,0
			L2.727,249.419c-3.636,3.635-3.636,9.525,0,13.161l223.765,223.765c1.818,1.818,4.199,2.727,6.581,2.727
			c2.382,0,4.763-0.909,6.581-2.727c3.636-3.635,3.636-9.525,0-13.161L31.385,264.916h471.307c5.14,0,9.307-4.167,9.307-9.307
			S507.832,246.301,502.692,246.301z"/>
	</g>
</g>
<g>
</g>
<g>
</g>
<g>
</g>
<g>
</g>
<g>
</g>
<g>
</g>
<g>
</g>
<g>
</g>
<g>
</g>
<g>
</g>
<g>
</g>
<g>
</g>
<g>
</g>
<g>
</g>
<g>
</g>
</svg>
