<?xml version="1.0" encoding="iso-8859-1"?>
<!-- Generator: Adobe Illustrator 19.0.0, SVG Export Plug-In . SVG Version: 6.00 Build 0)  -->
<svg version="1.1" id="Layer_1" xmlns="http://www.w3.org/2000/svg" xmlns:xlink="http://www.w3.org/1999/xlink" x="0px" y="0px"
	 viewBox="0 0 512 512" style="enable-background:new 0 0 512 512;" xml:space="preserve">
<g>
	<g>
		<path d="M363.38,291.68l47.647-47.647c27.458,8.445,57.568,1.125,78.111-19.417c21.939-21.938,28.798-54.781,17.478-83.674
			c-1.091-2.779-3.508-4.823-6.429-5.433c-2.925-0.61-5.954,0.293-8.067,2.404l-42.637,42.637l-26.614-26.615l42.635-42.636
			c2.113-2.112,3.016-5.145,2.404-8.067c-0.609-2.923-2.653-5.341-5.433-6.429c-28.889-11.322-61.733-4.462-83.672,17.475
			c-20.543,20.543-27.865,50.646-19.42,78.112l-47.646,47.647L221.59,149.89l6.257-6.257c1.692-1.693,2.627-3.997,2.593-6.389
			c-0.006-0.359-0.398-36.081,11.47-58.266c12.308-23.012,48.715-59.553,49.08-59.919c2.506-2.505,3.275-6.264,1.955-9.552
			s-4.472-5.472-8.015-5.551c-1.128-0.026-28.104-0.46-54.781,12.878c-26.013,13.006-69.297,56.141-71.127,57.971l-81.343,81.343
			c-3.457,3.456-3.457,9.058,0,12.514l6.256,6.258l-31.287,31.286l-6.256-6.256c-3.457-3.454-9.061-3.454-12.513,0L2.593,231.232
			C0.933,232.892,0,235.143,0,237.49s0.933,4.597,2.593,6.258l56.315,56.315c1.659,1.659,3.91,2.591,6.256,2.591
			c2.346,0,4.597-0.932,6.256-2.591l31.285-31.286c3.457-3.457,3.457-9.058,0-12.514l-6.256-6.258l31.287-31.286l6.256,6.256
			c3.452,3.454,9.061,3.454,12.513,0l25.029-25.029l90.146,90.147l-65.344,65.342c-27.469-8.446-57.572-1.123-78.111,19.417
			c-21.939,21.938-28.798,54.782-17.478,83.675c1.091,2.779,3.508,4.823,6.429,5.433c2.925,0.61,5.956-0.293,8.067-2.404
			l42.637-42.636l26.614,26.615l-42.635,42.635c-2.111,2.112-3.016,5.145-2.404,8.067c0.609,2.923,2.653,5.341,5.433,6.429
			c9.249,3.625,18.899,5.386,28.469,5.385c20.327-0.001,40.287-7.946,55.202-22.861c20.543-20.542,27.865-50.645,19.42-78.112
			l65.343-65.342l127.31,127.31c6.883,6.882,15.924,10.322,24.972,10.322c9.067,0,18.139-3.456,25.048-10.362
			c13.796-13.801,13.813-36.238,0.037-50.017L363.38,291.68z M375.821,200.98c2.489-2.488,3.267-6.212,1.983-9.486
			c-8.756-22.341-3.452-47.737,13.511-64.702c13.515-13.517,32.369-19.629,50.795-17.13l-38.014,38.014
			c-3.457,3.457-3.457,9.058,0,12.515l39.129,39.129c3.452,3.454,9.061,3.454,12.513,0l38.014-38.014
			c2.5,18.411-3.614,37.279-17.128,50.793c-16.965,16.965-42.363,22.268-64.702,13.513c-3.277-1.283-7.002-0.504-9.486,1.981
			l-51.571,51.571l-26.615-26.615L375.821,200.98z M140.248,206.204l-6.256-6.256c-3.452-3.454-9.061-3.454-12.513,0l-43.8,43.8
			c-3.457,3.456-3.457,9.058,0,12.514l6.256,6.258l-18.772,18.772l-43.8-43.801l18.772-18.771l6.256,6.256
			c3.452,3.454,9.061,3.454,12.513,0l43.8-43.8c3.457-3.456,3.457-9.058,0-12.514l-6.256-6.258l75.086-75.085
			c0.428-0.429,43.057-42.922,66.529-54.657c8.073-4.037,16.272-6.596,23.49-8.217c-12.087,13.361-27.508,31.711-35.251,46.185
			c-11.625,21.736-13.31,52.346-13.535,63.053L140.248,206.204z M231.542,398.487c-2.489,2.488-3.267,6.211-1.983,9.486
			c8.756,22.342,3.452,47.738-13.511,64.702c-13.513,13.513-32.378,19.63-50.795,17.131l38.014-38.013
			c1.659-1.66,2.592-3.91,2.592-6.258c0-2.347-0.933-4.597-2.592-6.258l-39.129-39.129c-3.457-3.454-9.061-3.454-12.513,0
			l-38.014,38.014c-2.5-18.412,3.614-37.281,17.128-50.795c16.964-16.965,42.365-22.265,64.704-13.513
			c3.273,1.288,7,0.504,9.484-1.981l69.268-69.266l26.615,26.615L231.542,398.487z M478.137,456.492
			c-6.902,6.899-18.11,6.919-24.991,0.039L184.05,187.434l25.028-25.028l269.098,269.097
			C485.053,438.381,485.035,449.592,478.137,456.492z"/>
	</g>
</g>
<g>
</g>
<g>
</g>
<g>
</g>
<g>
</g>
<g>
</g>
<g>
</g>
<g>
</g>
<g>
</g>
<g>
</g>
<g>
</g>
<g>
</g>
<g>
</g>
<g>
</g>
<g>
</g>
<g>
</g>
</svg>
