<?xml version="1.0" encoding="iso-8859-1"?>
<!-- Generator: Adobe Illustrator 19.0.0, SVG Export Plug-In . SVG Version: 6.00 Build 0)  -->
<svg version="1.1" id="Layer_1" xmlns="http://www.w3.org/2000/svg" xmlns:xlink="http://www.w3.org/1999/xlink" x="0px" y="0px"
	 viewBox="0 0 512 512" style="enable-background:new 0 0 512 512;" xml:space="preserve">
<g>
	<g>
		<path d="M257.948,329.838c-30.533-30.53-65.533-45.544-98.596-42.272c-31.393,3.109-59.527,22.063-81.36,54.812
			c-18.433,27.649-33.342,34.727-42.603,35.796c-10.118,1.179-16.46-4.493-16.916-4.913c-3.421-3.334-8.628-4.05-12.828-1.744
			c-4.241,2.328-6.435,7.176-5.386,11.898c0.226,1.017,22.668,96.412,124.667,96.412c5.624,0,11.487-0.289,17.604-0.902
			c117.247-11.724,118.604-140.098,118.604-141.393C261.134,334.647,259.988,331.88,257.948,329.838z M226.674,394.398
			c-16.361,37.629-45.399,58.784-86.309,62.875c-67.474,6.739-98.09-31.716-110.819-57.274c2.387,0.161,4.92,0.138,7.587-0.126
			c20.377-2.018,40.216-17.301,58.965-45.424c18.095-27.143,40.71-42.782,65.399-45.226c25.286-2.508,52.739,9.089,77.691,32.723
			C238.617,350.919,236.273,372.321,226.674,394.398z"/>
	</g>
</g>
<g>
	<g>
		<path d="M499.093,45.078c-16.839-16.84-44.664-17.253-62.023-0.918L214.714,253.435c-3.415,3.213-4.387,8.252-2.412,12.504
			c1.974,4.253,6.443,6.755,11.108,6.229c1.673-0.193,3.384-0.289,5.083-0.289c24.204,0,43.894,19.691,43.894,43.893
			c0,1.636-0.09,3.287-0.27,4.906c-0.515,4.653,2.003,9.113,6.252,11.074c1.464,0.676,3.018,1.003,4.56,1.003
			c2.935,0,5.823-1.189,7.925-3.423l209.157-222.229C516.349,89.745,515.936,61.92,499.093,45.078z M484.166,92.187L291.41,296.989
			c-6.333-21.175-23.087-37.896-44.282-44.178L451.983,60.005c8.883-8.356,23.113-8.15,31.723,0.461
			C492.318,69.077,492.524,83.307,484.166,92.187z"/>
	</g>
</g>
<g>
</g>
<g>
</g>
<g>
</g>
<g>
</g>
<g>
</g>
<g>
</g>
<g>
</g>
<g>
</g>
<g>
</g>
<g>
</g>
<g>
</g>
<g>
</g>
<g>
</g>
<g>
</g>
<g>
</g>
</svg>
