<?xml version="1.0" encoding="iso-8859-1"?>
<!-- Generator: Adobe Illustrator 19.0.0, SVG Export Plug-In . SVG Version: 6.00 Build 0)  -->
<svg version="1.1" id="Layer_1" xmlns="http://www.w3.org/2000/svg" xmlns:xlink="http://www.w3.org/1999/xlink" x="0px" y="0px"
	 viewBox="0 0 512 512" style="enable-background:new 0 0 512 512;" xml:space="preserve">
<g>
	<g>
		<path d="M471.013,87.04H40.985C18.385,87.04,0,105.417,0,128.006v255.989c0,22.589,18.385,40.965,40.985,40.965h430.028
			c22.6,0,40.987-18.376,40.987-40.965V128.006C512,105.417,493.613,87.04,471.013,87.04z M40.985,107.52h430.028
			c1.006,0,1.989,0.098,2.957,0.238L256,268.866L38.03,107.758C38.997,107.617,39.979,107.52,40.985,107.52z M20.48,383.995V128.006
			c0-2.409,0.44-4.711,1.208-6.859l153.896,113.749L21.198,389.283C20.744,387.592,20.48,385.825,20.48,383.995z M471.012,404.48
			H40.985c-1.836,0-3.608-0.265-5.303-0.719l156.554-156.555l57.676,42.63c1.81,1.336,3.947,2.005,6.087,2.005
			s4.277-0.669,6.087-2.005l57.676-42.63L476.317,403.76C474.622,404.215,472.85,404.48,471.012,404.48z M491.52,383.995
			c0,1.831-0.264,3.598-0.718,5.287L336.417,234.896l153.896-113.749c0.767,2.148,1.208,4.451,1.208,6.859V383.995z"/>
	</g>
</g>
<g>
</g>
<g>
</g>
<g>
</g>
<g>
</g>
<g>
</g>
<g>
</g>
<g>
</g>
<g>
</g>
<g>
</g>
<g>
</g>
<g>
</g>
<g>
</g>
<g>
</g>
<g>
</g>
<g>
</g>
</svg>
