<?xml version="1.0" encoding="iso-8859-1"?>
<!-- Generator: Adobe Illustrator 19.0.0, SVG Export Plug-In . SVG Version: 6.00 Build 0)  -->
<svg version="1.1" id="Layer_1" xmlns="http://www.w3.org/2000/svg" xmlns:xlink="http://www.w3.org/1999/xlink" x="0px" y="0px"
	 viewBox="0 0 512 512" style="enable-background:new 0 0 512 512;" xml:space="preserve">
<g>
	<g>
		<path d="M161.889,372.794l-56.867-211.218c-3.971-14.75-10.483-22.308-19.356-22.466c-8.787-0.226-15.641,7.156-20.129,21.74
			L0.424,372.469c-1.549,5.037,1.278,10.376,6.314,11.926c0.934,0.288,1.88,0.424,2.809,0.424c4.078,0,7.854-2.636,9.117-6.738
			l24.351-79.143h79.225l21.22,78.817c1.369,5.087,6.602,8.102,11.695,6.733C160.244,383.119,163.26,377.883,161.889,372.794z
			 M48.889,279.854l34.89-113.392c0.515-1.675,1.015-3.056,1.478-4.19c0.426,1.154,0.88,2.561,1.338,4.266l30.509,113.317H48.889z"
			/>
	</g>
</g>
<g>
	<g>
		<path d="M507.6,332.303c-4.443-2.84-10.339-1.545-13.181,2.893c-12.602,19.692-28.917,30.536-45.94,30.536
			c-36.207,0-66.794-50.252-66.794-109.734s30.588-109.734,66.794-109.734c17.022,0,33.338,10.844,45.94,30.536
			c2.842,4.437,8.738,5.733,13.181,2.893c4.439-2.841,5.734-8.742,2.893-13.181c-16.233-25.365-38.257-39.333-62.014-39.333
			c-23.759,0-45.783,13.97-62.015,39.333c-15.388,24.045-23.863,55.824-23.863,89.485c0,33.661,8.475,65.44,23.863,89.485
			c16.233,25.364,38.257,39.333,62.015,39.333c23.757,0,45.781-13.968,62.014-39.333C513.335,341.045,512.039,335.144,507.6,332.303
			z"/>
	</g>
</g>
<g>
	<g>
		<path d="M302.999,248.126c13.056-10.504,21.434-26.598,21.434-44.619v-9.521c0-31.574-25.693-57.263-57.273-57.263h-47.608
			c-15.83,0-28.708,12.808-28.708,28.551v19.16v47.787v38.118v66.768v19.059c0,15.798,12.854,28.652,28.652,28.652h57.155
			c31.609,0,57.325-25.715,57.325-57.325V299.01C333.975,276.898,321.382,257.684,302.999,248.126z M209.928,184.433v-19.16
			c0-5.219,4.317-9.466,9.624-9.466h47.608c21.057,0,38.189,17.127,38.189,38.179v9.521c0,21.051-17.132,38.179-38.189,38.179
			h-47.608c-5.307,0-9.624-4.246-9.624-9.465V184.433z M276.65,365.733h-57.155c-5.275,0-9.568-4.292-9.568-9.568v-19.059v-66.768
			c0-5.276,4.292-9.569,9.568-9.569h0.056h47.608h9.491c21.087,0,38.241,17.154,38.241,38.241v28.482h0
			C314.891,348.579,297.737,365.733,276.65,365.733z"/>
	</g>
</g>
<g>
</g>
<g>
</g>
<g>
</g>
<g>
</g>
<g>
</g>
<g>
</g>
<g>
</g>
<g>
</g>
<g>
</g>
<g>
</g>
<g>
</g>
<g>
</g>
<g>
</g>
<g>
</g>
<g>
</g>
</svg>
