<?xml version="1.0" encoding="iso-8859-1"?>
<!-- Generator: Adobe Illustrator 19.0.0, SVG Export Plug-In . SVG Version: 6.00 Build 0)  -->
<svg version="1.1" id="Layer_1" xmlns="http://www.w3.org/2000/svg" xmlns:xlink="http://www.w3.org/1999/xlink" x="0px" y="0px"
	 viewBox="0 0 512 512" style="enable-background:new 0 0 512 512;" xml:space="preserve">
<g>
	<g>
		<path d="M509.273,249.419L285.508,25.654c-3.635-3.636-9.525-3.635-13.161,0c-3.636,3.635-3.636,9.525,0,13.161l207.486,207.486
			H9.307c-5.14,0-9.307,4.167-9.307,9.307s4.167,9.307,9.307,9.307h471.307L272.347,473.184c-3.636,3.635-3.636,9.525,0,13.161
			c1.818,1.818,4.199,2.727,6.581,2.727c2.382,0,4.763-0.909,6.581-2.727L509.273,262.58
			C512.909,258.945,512.909,253.055,509.273,249.419z"/>
	</g>
</g>
<g>
</g>
<g>
</g>
<g>
</g>
<g>
</g>
<g>
</g>
<g>
</g>
<g>
</g>
<g>
</g>
<g>
</g>
<g>
</g>
<g>
</g>
<g>
</g>
<g>
</g>
<g>
</g>
<g>
</g>
</svg>
