<?xml version="1.0" encoding="iso-8859-1"?>
<!-- Generator: Adobe Illustrator 19.0.0, SVG Export Plug-In . SVG Version: 6.00 Build 0)  -->
<svg version="1.1" id="Layer_1" xmlns="http://www.w3.org/2000/svg" xmlns:xlink="http://www.w3.org/1999/xlink" x="0px" y="0px"
	 viewBox="0 0 512 512" style="enable-background:new 0 0 512 512;" xml:space="preserve">
<g>
	<g>
		<path d="M461.329,103.278c-0.151-0.254-0.268-0.52-0.446-0.763c-0.267-0.368-0.583-0.676-0.888-0.994
			C413.204,39.883,339.177,0,256,0C114.841,0,0,114.841,0,256s114.841,256,256,256s256-114.841,256-256
			C512,198.809,493.144,145.941,461.329,103.278z M256,19.692c73.585,0,139.418,33.816,182.791,86.718l-98.658,71.751
			L214.124,146.74c-0.625-0.156-1.251-0.23-1.876-0.263L159.225,40.432C188.776,27.112,221.537,19.692,256,19.692z M345.764,320.372
			c-0.24,0.461-0.475,0.927-0.646,1.435c-0.061,0.185-0.076,0.372-0.126,0.559l-114.637,46.316l-80.082-95.447l66.023-105.659
			l120.891,30.144L345.764,320.372z M19.692,256c0-88.834,49.283-166.366,121.936-206.722l55.727,111.454l-66,105.62L20.51,275.589
			C19.977,269.127,19.692,262.596,19.692,256z M198.07,485.113c-90.008-22.769-159.603-97.321-175.118-189.966L135.11,285.8
			l81.53,97.168L198.07,485.113z M256,492.308c-13.161,0-26.066-1.1-38.647-3.178l18.437-101.405l124.097-50.138
			c0.201-0.081,0.379-0.192,0.57-0.285L462.24,371.23C421.751,443.411,344.483,492.308,256,492.308z M365.352,318.173l-8.92-127.517
			l94.197-68.507c26.269,38.077,41.678,84.196,41.678,133.851c0,34.733-7.538,67.739-21.056,97.474L365.352,318.173z"/>
	</g>
</g>
<g>
</g>
<g>
</g>
<g>
</g>
<g>
</g>
<g>
</g>
<g>
</g>
<g>
</g>
<g>
</g>
<g>
</g>
<g>
</g>
<g>
</g>
<g>
</g>
<g>
</g>
<g>
</g>
<g>
</g>
</svg>
