<?xml version="1.0" encoding="iso-8859-1"?>
<!-- Generator: Adobe Illustrator 19.0.0, SVG Export Plug-In . SVG Version: 6.00 Build 0)  -->
<svg version="1.1" id="Layer_1" xmlns="http://www.w3.org/2000/svg" xmlns:xlink="http://www.w3.org/1999/xlink" x="0px" y="0px"
	 viewBox="0 0 512 512" style="enable-background:new 0 0 512 512;" xml:space="preserve">
<g>
	<g>
		<path d="M509.31,202.197L347.262,40.149c-3.586-3.586-9.395-3.586-12.981,0l-51.929,51.929c-3.586,3.586-3.586,9.395,0,12.981
			l7.669,7.669l-26.859,26.86l-22.762-22.758l2.591-2.591c3.586-3.586,3.586-9.395,0-12.981l-51.929-51.929
			c-3.586-3.586-9.395-3.586-12.981,0L2.689,224.722c-3.586,3.586-3.586,9.395,0,12.981l51.929,51.933
			c1.721,1.721,4.057,2.69,6.49,2.69c2.434,0,4.769-0.968,6.491-2.69l4.036-4.036l186.247,186.251
			c1.721,1.721,4.056,2.69,6.491,2.69c2.434,0,4.769-0.968,6.49-2.69L426.654,316.06c3.586-3.586,3.586-9.395,0-12.981
			l-14.805-14.805l26.859-26.859l5.693,5.693c1.793,1.793,4.142,2.69,6.491,2.69c2.349,0,4.697-0.896,6.49-2.69l51.929-51.929
			C512.896,211.593,512.896,205.783,509.31,202.197z M300.9,127.812l25.967,25.967L226.81,253.839l-25.967-25.967L300.9,127.812z
			 M61.109,270.164l-38.948-38.952L184.572,68.801l38.948,38.948L61.109,270.164z M383.578,333.174l-51.526-51.525
			c-3.586-3.586-9.395-3.586-12.981,0s-3.586,9.395,0,12.981l51.525,51.526l-23.739,23.739l-51.525-51.525
			c-3.586-3.586-9.395-3.586-12.981,0c-3.586,3.586-3.586,9.395,0,12.981l51.525,51.525l-23.739,23.739l-51.526-51.525
			c-3.586-3.586-9.395-3.586-12.981,0s-3.586,9.395,0,12.981l51.525,51.525l-32.784,32.785L84.617,272.619L227.42,129.811
			l22.762,22.758l-68.81,68.813c-3.586,3.586-3.586,9.395,0,12.981l38.948,38.948c1.721,1.721,4.057,2.689,6.49,2.689
			c2.434,0,4.769-0.968,6.491-2.689l68.811-68.813l105.072,105.071L383.578,333.174z M398.868,275.292l-83.776-83.775l26.859-26.86
			l83.776,83.776L398.868,275.292z M450.891,247.636L301.823,98.568l38.948-38.948l149.067,149.068L450.891,247.636z"/>
	</g>
</g>
<g>
</g>
<g>
</g>
<g>
</g>
<g>
</g>
<g>
</g>
<g>
</g>
<g>
</g>
<g>
</g>
<g>
</g>
<g>
</g>
<g>
</g>
<g>
</g>
<g>
</g>
<g>
</g>
<g>
</g>
</svg>
