<?xml version="1.0" encoding="utf-8"?>
<!-- Generator: Adobe Illustrator 23.0.2, SVG Export Plug-In . SVG Version: 6.00 Build 0)  -->
<svg version="1.1" id="Capa_1" xmlns="http://www.w3.org/2000/svg" xmlns:xlink="http://www.w3.org/1999/xlink" x="0px" y="0px"
	 viewBox="0 0 90 90" style="enable-background:new 0 0 90 90;" xml:space="preserve">
<g>
	<g>
		<path id="WhatsApp_1_" d="M66.8,54.7c-0.2-0.1-0.5-0.3-0.8-0.4L65.4,54c-1.7-0.9-6.4-3.1-7.2-3.4c-0.3-0.1-0.5-0.2-0.6-0.2
			c0,0-0.1,0.1-0.1,0.1c-0.9,1.4-3.5,4.3-3.6,4.4c-1.6,1.9-3.5,0.9-4.1,0.6c-0.2-0.1-0.4-0.2-0.6-0.3c-1.5-0.7-4.8-2.1-8.4-5.3
			c-3.3-2.9-5.5-6.4-6.3-7.8c-1.2-2.1,0.2-3.5,0.7-4c0.3-0.3,0.6-0.7,1-1.1c0.2-0.2,0.4-0.5,0.6-0.7c0.3-0.4,0.5-0.7,0.7-1.2
			l0.2-0.3c0-0.1,0.1-0.2-0.1-0.5c-0.2-0.4-1-2.3-2.2-5.3c-0.4-1.1-0.9-2.1-1.1-2.8c-0.3-0.8-0.5-0.9-0.5-0.9c0,0-0.1,0-0.2,0
			c-0.5,0-0.9,0-1.4,0c-0.3,0-0.7,0-1,0c-0.2,0-1,0.1-1.8,0.9l-0.2,0.2c-1,1.1-3.2,3.4-3.2,7.7c0,4.4,3.1,8.9,4.1,10.2
			c0,0.1,0.2,0.2,0.3,0.4c5.1,7.4,11.3,12.9,17.6,15.3c8.7,3.4,10.1,3.1,11.2,2.8c0.3-0.1,0.7-0.2,1.1-0.2c1.6-0.1,5.4-2.3,6-4.1
			C66.7,56.8,66.8,55.3,66.8,54.7z M66,54.3L65.4,54c-1.7-0.9-6.4-3.1-7.2-3.4c-0.3-0.1-0.5-0.2-0.6-0.2c0,0-0.1,0.1-0.1,0.1
			c-0.9,1.4-3.5,4.3-3.6,4.4c-1.6,1.9-3.5,0.9-4.1,0.6c-0.2-0.1-0.4-0.2-0.6-0.3c-1.5-0.7-4.8-2.1-8.4-5.3c-3.3-2.9-5.5-6.4-6.3-7.8
			c-1.2-2.1,0.2-3.5,0.7-4c0.3-0.3,0.6-0.7,1-1.1c0.2-0.2,0.4-0.5,0.6-0.7c0.3-0.4,0.5-0.7,0.7-1.2l0.2-0.3c0-0.1,0.1-0.2-0.1-0.5
			c-0.2-0.4-1-2.3-2.2-5.3c-0.4-1.1-0.9-2.1-1.1-2.8c-0.3-0.8-0.5-0.9-0.5-0.9c0,0-0.1,0-0.2,0c-0.5,0-0.9,0-1.4,0c-0.3,0-0.7,0-1,0
			c-0.2,0-1,0.1-1.8,0.9l-0.2,0.2c-1,1.1-3.2,3.4-3.2,7.7c0,4.4,3.1,8.9,4.1,10.2c0,0.1,0.2,0.2,0.3,0.4
			c5.1,7.4,11.3,12.9,17.6,15.3c8.7,3.4,10.1,3.1,11.2,2.8c0.3-0.1,0.7-0.2,1.1-0.2c1.6-0.1,5.4-2.3,6-4.1c0.6-1.8,0.7-3.2,0.7-3.8
			C66.6,54.6,66.3,54.5,66,54.3z M45.8,1.5c-23.5,0-42.7,19-42.7,42.3c0,7.7,2.1,15.3,6.1,21.9l0.4,0.6L2.4,87.7l22.2-7.1l0.6,0.3
			c6.3,3.5,13.4,5.3,20.6,5.3c23.5,0,42.7-19,42.7-42.3C88.5,20.5,69.3,1.5,45.8,1.5z M45.8,82.2c-7.4,0-14.5-2.1-20.7-6L8.7,81.5
			l5.4-15.8c-4.5-6.5-6.9-14-6.9-21.9c0-21.2,17.3-38.4,38.7-38.4s38.6,17.2,38.6,38.4C84.5,65,67.1,82.2,45.8,82.2z M66.8,54.7
			c-0.2-0.1-0.5-0.3-0.8-0.4L65.4,54c-1.7-0.9-6.4-3.1-7.2-3.4c-0.3-0.1-0.5-0.2-0.6-0.2c0,0-0.1,0.1-0.1,0.1
			c-0.9,1.4-3.5,4.3-3.6,4.4c-1.6,1.9-3.5,0.9-4.1,0.6c-0.2-0.1-0.4-0.2-0.6-0.3c-1.5-0.7-4.8-2.1-8.4-5.3c-3.3-2.9-5.5-6.4-6.3-7.8
			c-1.2-2.1,0.2-3.5,0.7-4c0.3-0.3,0.6-0.7,1-1.1c0.2-0.2,0.4-0.5,0.6-0.7c0.3-0.4,0.5-0.7,0.7-1.2l0.2-0.3c0-0.1,0.1-0.2-0.1-0.5
			c-0.2-0.4-1-2.3-2.2-5.3c-0.4-1.1-0.9-2.1-1.1-2.8c-0.3-0.8-0.5-0.9-0.5-0.9c0,0-0.1,0-0.2,0c-0.5,0-0.9,0-1.4,0c-0.3,0-0.7,0-1,0
			c-0.2,0-1,0.1-1.8,0.9l-0.2,0.2c-1,1.1-3.2,3.4-3.2,7.7c0,4.4,3.1,8.9,4.1,10.2c0,0.1,0.2,0.2,0.3,0.4
			c5.1,7.4,11.3,12.9,17.6,15.3c8.7,3.4,10.1,3.1,11.2,2.8c0.3-0.1,0.7-0.2,1.1-0.2c1.6-0.1,5.4-2.3,6-4.1
			C66.7,56.8,66.8,55.3,66.8,54.7z M66.8,54.7c-0.2-0.1-0.5-0.3-0.8-0.4L65.4,54c-1.7-0.9-6.4-3.1-7.2-3.4c-0.3-0.1-0.5-0.2-0.6-0.2
			c0,0-0.1,0.1-0.1,0.1c-0.9,1.4-3.5,4.3-3.6,4.4c-1.6,1.9-3.5,0.9-4.1,0.6c-0.2-0.1-0.4-0.2-0.6-0.3c-1.5-0.7-4.8-2.1-8.4-5.3
			c-3.3-2.9-5.5-6.4-6.3-7.8c-1.2-2.1,0.2-3.5,0.7-4c0.3-0.3,0.6-0.7,1-1.1c0.2-0.2,0.4-0.5,0.6-0.7c0.3-0.4,0.5-0.7,0.7-1.2
			l0.2-0.3c0-0.1,0.1-0.2-0.1-0.5c-0.2-0.4-1-2.3-2.2-5.3c-0.4-1.1-0.9-2.1-1.1-2.8c-0.3-0.8-0.5-0.9-0.5-0.9c0,0-0.1,0-0.2,0
			c-0.5,0-0.9,0-1.4,0c-0.3,0-0.7,0-1,0c-0.2,0-1,0.1-1.8,0.9l-0.2,0.2c-1,1.1-3.2,3.4-3.2,7.7c0,4.4,3.1,8.9,4.1,10.2
			c0,0.1,0.2,0.2,0.3,0.4c5.1,7.4,11.3,12.9,17.6,15.3c8.7,3.4,10.1,3.1,11.2,2.8c0.3-0.1,0.7-0.2,1.1-0.2c1.6-0.1,5.4-2.3,6-4.1
			C66.7,56.8,66.8,55.3,66.8,54.7z M66.8,54.7c-0.2-0.1-0.5-0.3-0.8-0.4L65.4,54c-1.7-0.9-6.4-3.1-7.2-3.4c-0.3-0.1-0.5-0.2-0.6-0.2
			c0,0-0.1,0.1-0.1,0.1c-0.9,1.4-3.5,4.3-3.6,4.4c-1.6,1.9-3.5,0.9-4.1,0.6c-0.2-0.1-0.4-0.2-0.6-0.3c-1.5-0.7-4.8-2.1-8.4-5.3
			c-3.3-2.9-5.5-6.4-6.3-7.8c-1.2-2.1,0.2-3.5,0.7-4c0.3-0.3,0.6-0.7,1-1.1c0.2-0.2,0.4-0.5,0.6-0.7c0.3-0.4,0.5-0.7,0.7-1.2
			l0.2-0.3c0-0.1,0.1-0.2-0.1-0.5c-0.2-0.4-1-2.3-2.2-5.3c-0.4-1.1-0.9-2.1-1.1-2.8c-0.3-0.8-0.5-0.9-0.5-0.9c0,0-0.1,0-0.2,0
			c-0.5,0-0.9,0-1.4,0c-0.3,0-0.7,0-1,0c-0.2,0-1,0.1-1.8,0.9l-0.2,0.2c-1,1.1-3.2,3.4-3.2,7.7c0,4.4,3.1,8.9,4.1,10.2
			c0,0.1,0.2,0.2,0.3,0.4c5.1,7.4,11.3,12.9,17.6,15.3c8.7,3.4,10.1,3.1,11.2,2.8c0.3-0.1,0.7-0.2,1.1-0.2c1.6-0.1,5.4-2.3,6-4.1
			C66.7,56.8,66.8,55.3,66.8,54.7z"/>
	</g>
</g>
</svg>
