<?xml version="1.0" encoding="iso-8859-1"?>
<!-- Generator: Adobe Illustrator 19.0.0, SVG Export Plug-In . SVG Version: 6.00 Build 0)  -->
<svg version="1.1" id="Layer_1" xmlns="http://www.w3.org/2000/svg" xmlns:xlink="http://www.w3.org/1999/xlink" x="0px" y="0px"
	 viewBox="0 0 512 512" style="enable-background:new 0 0 512 512;" xml:space="preserve">
<g>
	<g>
		<path d="M304.499,5.764c-114.417,0-207.501,93.084-207.501,207.501c0,50.137,17.877,96.175,47.589,132.083l-70.645,70.643
			l-57.639-57.639L0,374.655l57.639,57.639l-46.111,46.111l16.304,16.303l46.111-46.111l57.639,57.639l16.304-16.303l-57.639-57.639
			l70.039-70.041c37.367,36.179,88.217,58.513,144.213,58.513C418.916,420.766,512,327.682,512,213.265
			C512,98.848,418.916,5.764,304.499,5.764z M304.499,397.71c-101.704,0-184.445-82.742-184.445-184.445
			c0-101.703,82.741-184.445,184.445-184.445c101.704,0,184.445,82.742,184.445,184.445
			C488.944,314.968,406.204,397.71,304.499,397.71z"/>
	</g>
</g>
<g>
</g>
<g>
</g>
<g>
</g>
<g>
</g>
<g>
</g>
<g>
</g>
<g>
</g>
<g>
</g>
<g>
</g>
<g>
</g>
<g>
</g>
<g>
</g>
<g>
</g>
<g>
</g>
<g>
</g>
</svg>
